<svg width="128" height="128" viewBox="0 0 128 128" fill="none" xmlns="http://www.w3.org/2000/svg">
    <path d="M34.593 72.0347H33.3844L27.3514 66.0017L33.3844 59.9687H34.593L40.626 66.0017L34.593 72.0347Z" fill="#00AD9F"/>
    <path d="M71.9977 34.63V33.4214L77.9957 27.4234L84.0287 33.4214V34.63L77.9957 40.663L71.9977 34.63Z" fill="#00AD9F"/>
    <path d="M63.9927 42.635L69.9907 36.637V37.8456L63.9927 43.8436L57.9947 37.8456V36.637L63.9927 42.635Z" fill="#00AD9F"/>
    <path d="M63.9927 51.9634L55.9967 43.9674V42.7588L63.9927 50.7548L71.9887 42.7588V43.9674L63.9927 51.9634Z" fill="#00AD9F"/>
    <path d="M63.9927 61.2918L48.0007 45.2998V44.0912L63.9927 60.0832L79.9847 44.0912V45.2998L63.9927 61.2918Z" fill="#00AD9F"/>
    <path d="M63.9927 70.6202L40.0047 46.6322V45.4236L63.9927 69.4116L87.9807 45.4236V46.6322L63.9927 70.6202Z" fill="#00AD9F"/>
    <path d="M63.9927 79.9486L31.9737 47.9296V46.721L63.9927 78.74L96.0117 46.721V47.9296L63.9927 79.9486Z" fill="#00AD9F"/>
    <path d="M63.9927 89.277L24.0077 49.292V48.0834L63.9927 88.0684L103.978 48.0834V49.292L63.9927 89.277Z" fill="#00AD9F"/>
    <path d="M63.9927 98.6054L15.9767 50.5894V49.3808L63.9927 97.3968L112.009 49.3808V50.5894L63.9927 98.6054Z" fill="#00AD9F"/>
</svg>